<mxfile host="app.diagrams.net" modified="2023-11-01T04:50:14.844Z" agent="Mozilla/5.0 (Windows NT 10.0; Win64; x64) AppleWebKit/537.36 (KHTML, like Gecko) Chrome/118.0.0.0 Safari/537.36 Edg/118.0.2088.76" version="22.0.8" etag="fHuUppvq7Lys9xlBx2DL" type="github">
  <diagram name="페이지-1" id="StcWPJBG_MWPd9JdS1YE">
    <mxGraphModel>
      <root>
        <mxCell id="0" />
        <mxCell id="1" parent="0" />
      </root>
    </mxGraphModel>
  </diagram>
</mxfile>
